{"title":"Kiss of the Dragon 2001 BRRip XviD AC3-FWOLF","uid":11615853,"size":1460730027,"categoryP":"video","categoryS":"movies","magnet":"?xt=urn:btih:140e01b21745bdf3ee3b44a973c6a6b7970187d8&amp;dn=Kiss+of+the+Dragon+2001+BRRip+XviD+AC3-FWOLF&amp;tr=udp%3A%2F%2Ftracker.openbittorrent.com%3A80&amp;tr=udp%3A%2F%2Fopen.demonii.com%3A1337&amp;tr=udp%3A%2F%2Ftracker.coppersurfer.tk%3A6969&amp;tr=udp%3A%2F%2Fexodus.desync.com%3A6969","seeders":0,"leechers":1,"uploader":"TvTeam","files":7,"time":1417497735,"description":" &lt;a href=&quot;https://www.torrenting.com&quot; rel=&quot;nofollow&quot; target=&quot;_NEW&quot;&gt;https://www.torrenting.com&lt;/a&gt;\n\nSign up is OPEN - for time being. Come and have fun.\n\n------------------------------------------------------------------Kiss of the Dragon 2001 BRRip XviD AC3-FWOLF\n\nimdb.... &lt;a href=&quot;\nhttp://www.imdb.com/title/tt0271027/&quot; rel=&quot;nofollow&quot; target=&quot;_NEW&quot;&gt;\nhttp://www.imdb.com/title/tt0271027/&lt;/a&gt;\n\n\nA betrayed intelligence officer enlists the aid of a prostitute \nto prove his innocence from a deadly conspiracy while \nreturning a favor to her.\n\n\n\nDirector: Chris Nahon\n\nWriters:  Jet Li (story), Luc Besson\n\n   \nStars:    Jet Li, Bridget Fonda, Tcheky Karyo\n\n\nFormat                                   : AVI\nFormat/Info                              : Audio Video Interleave\nFile size                                : 1.35 GiB\nDuration                                 : 1h 38mn\nOverall bit rate                         : 1 965 Kbps\n\nVideo\nID                                       : 0\nFormat                                   : MPEG-4 Visual\nFormat profile                           : Advanced Simple@L5\nFormat settings, BVOP                    : 2\nFormat settings, QPel                    : Yes\nFormat settings, GMC                     : No warppoints\nFormat settings, Matrix                  : Default (H.263)\nCodec ID                                 : XVID\nCodec ID/Hint                            : XviD\nDuration                                 : 1h 38mn\nBit rate                                 : 1 509 Kbps\nWidth                                    : 720 pixels\nHeight                                   : 304 pixels\nDisplay aspect ratio                     : 2.35:1\nFrame rate                               : 23.976 fps\nColor space                              : YUV\nChroma subsampling                       : 4:2:0\nBit depth                                : 8 bits\nScan type                                : Progressive\nCompression mode                         : Lossy\nBits/(Pixel*Frame)                       : 0.288\nStream size                              : 1.04 GiB (77%)\nWriting library                          : XviD 1.2.1 (UTC 2008-12-04)\n\nAudio\nID                                       : 1\nFormat                                   : AC-3\nFormat/Info                              : Audio Coding 3\nMode extension                           : CM (complete main)\nFormat settings, Endianness              : Big\nCodec ID                                 : 2000\nDuration                                 : 1h 38mn\nBit rate mode                            : Constant\nBit rate                                 : 448 Kbps\nChannel(s)                               : 6 channels\nChannel positions                        : Front: L C R, Side: L R, LFE\nSampling rate                            : 48.0 KHz\nBit depth                                : 16 bits\nCompression mode                         : Lossy\nStream size                              : 315 MiB (23%)\nAlignment                                : Aligned on interleaves\nInterleave, duration                     : 64 ms (1.53 video frames)\nInterleave, preload duration             : 192 ms\nTitle                                    : English\n\n\n\n\n\nEncoded....................FWOLF              \n\nSource.....................BluRay 720p DTS-ES x264-3Li (Thanks!)\n\nSample.....................Yes\n\nSubs.......................(srt)English,Greek \n\n\n\n\n\n[img]http://s24.postimg.org/7ns0r7out/image.png[/img]\n\n\n\n\n[img]http://s29.postimg.org/9y0zvzcw7/image.png[/img]\n\n\n\n\n[img]http://s4.postimg.org/5cq3eqsal/image.png[/img]\n\n\n\n\nGreetz To: PsiX | Blacksheep | CFR | tomcat-12...\n.....and all P2P Encoders and Groups","torrent":{"xt":"urn:btih:140e01b21745bdf3ee3b44a973c6a6b7970187d8","amp;dn":"Kiss+of+the+Dragon+2001+BRRip+XviD+AC3-FWOLF","amp;tr":["udp%3A%2F%2Ftracker.openbittorrent.com%3A80","udp%3A%2F%2Fopen.demonii.com%3A1337","udp%3A%2F%2Ftracker.coppersurfer.tk%3A6969","udp%3A%2F%2Fexodus.desync.com%3A6969"],"infoHash":"140e01b21745bdf3ee3b44a973c6a6b7970187d8","infoHashBuffer":{"type":"Buffer","data":[20,14,1,178,23,69,189,243,238,59,68,169,115,198,166,183,151,1,135,216]},"announce":[],"urlList":[]}}